<?xml version="1.0" standalone="no"?>
<!DOCTYPE svg PUBLIC "-//W3C//DTD SVG 20010904//EN"
 "http://www.w3.org/TR/2001/REC-SVG-20010904/DTD/svg10.dtd">
<svg version="1.0" xmlns="http://www.w3.org/2000/svg"
 width="544.000000pt" height="544.000000pt" viewBox="0 0 544.000000 544.000000"
 preserveAspectRatio="xMidYMid meet">
<metadata>
Created by potrace 1.11, written by Peter Selinger 2001-2013
</metadata>
<g transform="translate(0.000000,544.000000) scale(0.100000,-0.100000)"
fill="#000000" stroke="none">
<path d="M2520 5333 c-633 -49 -1215 -316 -1661 -762 -402 -403 -652 -899
-740 -1472 -30 -191 -32 -542 -6 -724 63 -426 202 -789 435 -1130 105 -153
178 -242 312 -375 401 -402 901 -653 1471 -741 206 -32 552 -32 757 0 574 88
1072 340 1477 745 405 405 656 915 741 1501 25 166 25 524 0 690 -113 778
-527 1433 -1174 1853 -469 305 -1062 458 -1612 415z m398 -624 c378 -41 733
-186 1037 -424 92 -72 270 -252 337 -340 271 -358 418 -788 418 -1225 0 -453
-161 -906 -447 -1260 -72 -89 -243 -257 -328 -321 -353 -270 -788 -419 -1225
-419 -437 0 -872 149 -1225 419 -85 64 -256 232 -328 321 -590 731 -595 1760
-12 2505 72 92 252 270 340 337 294 223 651 367 1005 407 110 12 317 13 428 0z"/>
<path d="M2495 4434 c-282 -42 -524 -134 -752 -285 -150 -100 -362 -312 -462
-462 -399 -602 -393 -1377 17 -1957 86 -123 299 -336 422 -422 178 -126 390
-219 626 -274 114 -27 130 -29 364 -29 234 0 250 2 364 29 234 55 450 149 626
273 123 87 336 301 422 423 177 250 289 568 306 867 23 407 -70 759 -289 1090
-100 150 -312 362 -462 462 -188 124 -384 208 -602 258 -96 21 -139 25 -330
28 -121 2 -233 1 -250 -1z m-307 -1305 c116 -24 204 -111 218 -211 l7 -48 -86
0 -85 0 -14 42 c-19 61 -54 82 -142 86 -112 6 -161 -27 -154 -105 4 -53 36
-71 205 -115 88 -23 166 -50 193 -66 91 -56 127 -151 100 -263 -17 -69 -91
-147 -165 -173 -74 -27 -225 -32 -305 -12 -118 30 -210 114 -226 205 -3 20 -8
44 -11 54 -4 15 5 17 85 17 l90 0 6 -33 c12 -65 66 -107 152 -121 150 -22 269
92 181 175 -28 27 -47 34 -197 76 -155 42 -215 74 -251 132 -90 141 -2 318
178 360 54 13 163 13 221 0z m532 -359 l0 -350 210 0 210 0 0 -75 0 -75 -300
0 -300 0 0 425 0 425 90 0 90 0 0 -350z m1040 275 l0 -75 -130 0 -130 0 0
-350 0 -350 -90 0 -90 0 0 350 0 350 -130 0 -130 0 0 75 0 75 350 0 350 0 0
-75z"/>
</g>
</svg>
