<svg xmlns="http://www.w3.org/2000/svg" viewBox="0 0 575 272"><path d="M439 5a131 131 0 10131 131A131 131 0 00439 5zm0 231a100 100 0 11100-100 100 100 0 01-100 100z" fill="#dee5f8"/><circle cx="439" cy="136" r="86" fill="#2d84cc"/><path d="M338.48 52H17v47h296.31a130.68 130.68 0 0125.17-47zM308 136a131.64 131.64 0 012.39-25H85v47h224.85a131.83 131.83 0 01-1.85-22zm4.47 34H13v47h323a130.56 130.56 0 01-23.53-47z" fill="#2f84cc"/><path d="M8 52h9v47H8zm68 59h9v47h-9zM4 170h9v47H4z" fill="#dee5f8"/><path d="M399.4 148.23a6.85 6.85 0 002.09 2.45 9 9 0 003.06 1.39 14.44 14.44 0 003.63.45 18.88 18.88 0 002.72-.21 9.46 9.46 0 002.72-.82 5.94 5.94 0 002.12-1.66 4.18 4.18 0 00.85-2.7 3.79 3.79 0 00-1.12-2.84 8.91 8.91 0 00-2.94-1.82 29.33 29.33 0 00-4.12-1.27q-2.3-.54-4.66-1.21a41.33 41.33 0 01-4.72-1.48 16.17 16.17 0 01-4.12-2.27 10.67 10.67 0 01-2.94-3.48 10.56 10.56 0 01-1.12-5.05 11.31 11.31 0 011.42-5.78 12.87 12.87 0 013.72-4.09 16.21 16.21 0 015.21-2.42 22.16 22.16 0 015.81-.79 27.53 27.53 0 016.51.76 16.27 16.27 0 015.54 2.45 12.41 12.41 0 013.84 4.33 13.28 13.28 0 011.42 6.39h-9.2a7.67 7.67 0 00-.82-3.21 5.36 5.36 0 00-1.85-2 7.84 7.84 0 00-2.63-1 16.27 16.27 0 00-3.24-.3 11.22 11.22 0 00-2.3.24 6.18 6.18 0 00-2.09.85 5.25 5.25 0 00-1.54 1.51 4.06 4.06 0 00-.61 2.3 3.88 3.88 0 00.48 2.06 4.32 4.32 0 001.91 1.45 24.33 24.33 0 003.94 1.33q2.51.67 6.57 1.7 1.21.24 3.36.88a16.13 16.13 0 014.27 2 12.91 12.91 0 013.66 3.72 10.6 10.6 0 011.54 6 13.22 13.22 0 01-1.15 5.51 12 12 0 01-3.42 4.39 16.41 16.41 0 01-5.63 2.88 26.6 26.6 0 01-7.78 1 27.36 27.36 0 01-6.93-.88 17.41 17.41 0 01-5.93-2.75 13.59 13.59 0 01-4.09-4.78 14.27 14.27 0 01-1.45-6.9h9.2a7.91 7.91 0 00.81 3.67zm40.2-32.57v35.23h21.07v8H430.1v-43.23zm16.77 7.99v-8h35.41v8h-13v35.23h-9.5v-35.23zM45.13 187.13h-5.85v-4.05h16.54v4.05H50v17.26h-4.87zm12.1 6.51c0-7 3.92-10.95 9.67-10.95s9.67 4 9.67 10.95-3.92 11.15-9.67 11.15-9.67-4.19-9.67-11.15zm14.41 0c0-4.25-1.83-6.8-4.74-6.8s-4.74 2.55-4.74 6.8 1.83 7 4.74 7 4.74-2.72 4.74-7zm7.94.23c0-7.06 4.71-11.18 10.39-11.18a9.2 9.2 0 016.7 2.78l-2.52 3.07a5.65 5.65 0 00-4-1.7c-3.3 0-5.62 2.58-5.62 6.86s2 6.93 6 6.93a3.8 3.8 0 002.29-.65v-3.66h-3.56v-3.92H97v9.81a10.27 10.27 0 01-7 2.58c-5.84-.01-10.42-3.79-10.42-10.92zm21.87-10.79h13.34v4.05h-8.53v4.28h7.26v4h-7.26v4.9h8.86v4.05h-13.67zm22.06 4.05h-5.85v-4.05h16.54v4.05h-5.85v17.26h-4.84zm14.03-4.05h4.8v8.2h7.35v-8.2h4.84v21.31h-4.83v-8.89h-7.35v8.89h-4.8zm22.03 0h13.33v4.05h-8.53v4.28h7.26v4h-7.26v4.9h8.86v4.05h-13.66zm17.91 0h7.68c4.51 0 8.2 1.57 8.2 6.63a6.23 6.23 0 01-3.79 6.14l4.84 8.53H189l-4.09-7.68h-2.65v7.68h-4.8zm7.29 9.8c2.52 0 3.89-1.08 3.89-3.17s-1.37-2.81-3.89-2.81h-2.48v6zM42.61 83.71l2.75-3.3a8.63 8.63 0 005.26 2.22c2 0 3-.78 3-2.06s-1.24-1.76-3.1-2.57l-2.78-1.18A6.21 6.21 0 0143.46 71c0-3.53 3.14-6.34 7.58-6.34a9.87 9.87 0 016.86 2.84l-2.45 3A6.9 6.9 0 0051 68.84c-1.67 0-2.71.72-2.71 1.93s1.41 1.76 3.24 2.52l2.75 1.11c2.58 1 4.22 2.78 4.22 5.79 0 3.53-2.94 6.6-8 6.6a11.67 11.67 0 01-7.89-3.08zm23.5-18.63h5.79l6.67 21.31h-5.1l-1.31-5.07h-6.5l-1.31 5.07h-4.9zm.52 12.49h4.54l-.49-2C70.1 73.48 69.51 71 69 68.74h-.13c-.52 2.26-1.08 4.74-1.67 6.86zm10.92-12.49h5.1L85.2 75c.65 2.32 1.08 4.48 1.73 6.83h.13c.62-2.35 1.08-4.51 1.7-6.83l2.52-9.94h4.9l-6.41 21.33H84zm20.92 0h4.8v21.31h-4.8zm9.84 0h4.94l5.56 10.59 2.09 4.71h.1c-.2-2.25-.59-5.26-.59-7.78v-7.52H125v21.31h-4.94l-5.56-10.62-2.09-4.64h-.13c.2 2.35.59 5.2.59 7.71v7.55h-4.58zM129 75.87c0-7.06 4.71-11.18 10.39-11.18a9.2 9.2 0 016.7 2.78l-2.52 3.07a5.65 5.65 0 00-4-1.7c-3.3 0-5.62 2.58-5.62 6.86s2 6.93 6 6.93a3.8 3.8 0 002.29-.65v-3.66h-3.53v-3.93h7.78v9.81a10.27 10.27 0 01-7 2.58C133.61 86.78 129 83 129 75.87zm-18 49.21h4.8v17.26h8.43v4.05H111zm16.91 0h4.8v21.31h-4.8zm7.09 0h5.1l2.55 9.94c.65 2.32 1.08 4.48 1.73 6.83h.13c.62-2.35 1.08-4.51 1.7-6.83l2.52-9.94h4.9l-6.41 21.31h-5.79zm20.92 0h13.34v4.05h-8.53v4.28H168v4h-7.26v4.9h8.86v4.05h-13.68zm16.54 18.63l2.75-3.3a8.63 8.63 0 005.26 2.22c2 0 3-.78 3-2.06s-1.21-1.76-3.07-2.55l-2.78-1.18a6.21 6.21 0 01-4.28-5.82c0-3.53 3.14-6.34 7.58-6.34a9.87 9.87 0 016.86 2.81l-2.45 3a6.9 6.9 0 00-4.41-1.7c-1.67 0-2.71.72-2.71 1.93s1.41 1.76 3.24 2.52l2.75 1.11c2.58 1 4.22 2.78 4.22 5.79 0 3.53-2.94 6.6-8 6.6a11.67 11.67 0 01-7.96-3.03z" fill="#fff"/></svg>
