<svg xmlns="http://www.w3.org/2000/svg" viewBox="0 0 271 272"><path d="M135 5a131 131 0 10131 131A131 131 0 00135 5zm0 231a100 100 0 11100-100 100 100 0 01-100 100z" fill="#dee5f8"/><circle cx="135" cy="136" r="86" fill="#2d84cc"/><path d="M95.4 148.23a6.85 6.85 0 002.09 2.45 9 9 0 003.06 1.39 14.44 14.44 0 003.63.45 18.88 18.88 0 002.72-.21 9.46 9.46 0 002.72-.82 5.94 5.94 0 002.12-1.66 4.18 4.18 0 00.85-2.7 3.79 3.79 0 00-1.12-2.84 8.91 8.91 0 00-2.94-1.82 29.33 29.33 0 00-4.12-1.27q-2.3-.54-4.66-1.21a41.33 41.33 0 01-4.75-1.48 16.17 16.17 0 01-4.12-2.27 10.67 10.67 0 01-2.88-3.48 10.56 10.56 0 01-1.12-5.05 11.31 11.31 0 011.42-5.78 12.87 12.87 0 013.7-4.09 16.21 16.21 0 015.21-2.42 22.16 22.16 0 015.81-.79 27.53 27.53 0 016.51.76 16.27 16.27 0 015.54 2.45 12.41 12.41 0 013.84 4.33 13.28 13.28 0 011.42 6.39h-9.2a7.67 7.67 0 00-.82-3.21 5.36 5.36 0 00-1.85-2 7.84 7.84 0 00-2.63-1 16.27 16.27 0 00-3.24-.3 11.22 11.22 0 00-2.3.24 6.18 6.18 0 00-2.09.85 5.25 5.25 0 00-1.54 1.51 4.06 4.06 0 00-.61 2.3 3.88 3.88 0 00.48 2.06 4.32 4.32 0 001.91 1.45 24.33 24.33 0 003.94 1.33q2.51.67 6.57 1.7 1.21.24 3.36.88a16.13 16.13 0 014.27 2 12.91 12.91 0 013.66 3.72 10.6 10.6 0 011.54 6 13.22 13.22 0 01-1.15 5.51 12 12 0 01-3.42 4.39 16.41 16.41 0 01-5.63 2.88 26.6 26.6 0 01-7.78 1 27.36 27.36 0 01-6.93-.88 17.41 17.41 0 01-5.87-2.77 13.59 13.59 0 01-4.09-4.78 14.27 14.27 0 01-1.45-6.9h9.2a7.91 7.91 0 00.74 3.69zm40.2-32.57v35.23h21.07v8H126.1v-43.23zm16.77 7.99v-8h35.41v8h-13v35.23h-9.5v-35.23z" fill="#fff"/></svg>
